<?xml version="1.0" encoding="UTF-8"?>
<svg version="1.1" xmlns="http://www.w3.org/2000/svg" width="128" height="128">
<path d="M0 0 C0.96513519 -0.00003021 1.93027039 -0.00006042 2.9246521 -0.00009155 C6.09956281 0.00228958 9.27433743 0.01341369 12.44921875 0.02709961 C13.53731842 0.03156034 14.62541809 0.03602108 15.74649048 0.04061699 C21.49934839 0.06623268 27.2521019 0.10005354 33.00488281 0.13916016 C37.75954623 0.16980491 42.51379446 0.18343296 47.26855469 0.18212891 C53.02169894 0.1806057 58.77401289 0.20814222 64.52694702 0.25655937 C66.71491586 0.27018925 68.90297248 0.27369906 71.0909729 0.26680183 C74.15271426 0.25935001 77.21198059 0.28931173 80.2734375 0.328125 C81.62180191 0.31215019 81.62180191 0.31215019 82.99740601 0.29585266 C88.54783538 0.41536826 91.81583225 1.48444755 95.79343796 5.4525156 C100.09448122 10.78183753 99.45315117 17.417876 99.48730469 23.92407227 C99.5005629 25.00116959 99.51382111 26.07826691 99.52748108 27.18800354 C99.5684859 30.73981105 99.59527401 34.29155786 99.62109375 37.84350586 C99.64489021 40.31400079 99.66925117 42.78449033 99.69415283 45.25497437 C99.74403017 50.42800631 99.78683008 55.60103662 99.82470703 60.77416992 C99.87389693 67.41012119 99.94101699 74.04574899 100.01345444 80.68148232 C100.06709198 85.78055464 100.11108934 90.87967517 100.15216827 95.97886276 C100.17308327 98.42615906 100.19705467 100.87343119 100.22411346 103.32066727 C100.26047179 106.73665367 100.28382716 110.1524869 100.30371094 113.56860352 C100.32380974 115.08979042 100.32380974 115.08979042 100.34431458 116.64170837 C100.34708908 117.57250717 100.34986359 118.50330597 100.35272217 119.46231079 C100.35934246 120.26938288 100.36596275 121.07645496 100.37278366 121.90798378 C100.13671875 124.11694336 100.13671875 124.11694336 98.13671875 128.11694336 C56.88671875 128.11694336 15.63671875 128.11694336 -26.86328125 128.11694336 C-26.36828125 127.12694336 -26.36828125 127.12694336 -25.86328125 126.11694336 C-25.20328125 126.44694336 -24.54328125 126.77694336 -23.86328125 127.11694336 C-24.51913314 123.50701956 -24.51913314 123.50701956 -25.86328125 120.11694336 C-25.96830308 118.7818393 -26.01403402 117.44179895 -26.02822876 116.10264587 C-26.03946274 115.26307343 -26.05069672 114.42350098 -26.06227112 113.55848694 C-26.06959763 112.6353923 -26.07692413 111.71229767 -26.08447266 110.76123047 C-26.09597855 109.79028442 -26.10748444 108.81933838 -26.11933899 107.81896973 C-26.15615542 104.59410811 -26.1857343 101.36922687 -26.21484375 98.14428711 C-26.23795888 95.90425845 -26.26134922 93.66423262 -26.28500366 91.42420959 C-26.33352989 86.7190297 -26.37843995 82.01383218 -26.42089844 77.30859375 C-26.47551453 71.29190638 -26.53939176 65.27536001 -26.60607338 59.25879574 C-26.6563049 54.62701415 -26.70136544 49.99519299 -26.74491501 45.36334419 C-26.76641492 43.14626998 -26.78955168 40.92921099 -26.81438065 38.71217155 C-26.84848404 35.60094354 -26.87555948 32.48972827 -26.90087891 29.37841797 C-26.91225388 28.46949295 -26.92362885 27.56056793 -26.93534851 26.62409973 C-27.04253774 10.15940927 -27.04253774 10.15940927 -21.86328125 4.11694336 C-15.62664221 -0.77123318 -7.55096662 -0.02956635 0 0 Z M98.13671875 116.11694336 C99.13671875 119.11694336 99.13671875 119.11694336 99.13671875 119.11694336 Z " fill="#FBE8AC" transform="translate(27.86328125,-0.116943359375)"/>
<path d="M0 0 C2.5 0.25 2.5 0.25 4.5 2.25 C4.603125 3.508125 4.70625 4.76625 4.8125 6.0625 C5.17392228 9.41943912 5.58691035 10.37525316 7.625 13.3125 C10.45044416 15.63391706 10.45044416 15.63391706 14.3125 15.0625 C15.8903125 14.6603125 15.8903125 14.6603125 17.5 14.25 C17.83 13.26 18.16 12.27 18.5 11.25 C20.27734375 10.58984375 20.27734375 10.58984375 22.4375 10.1875 C25.85102341 9.54738154 25.85102341 9.54738154 28.5 7.25 C28.5 7.91 28.5 8.57 28.5 9.25 C29.16 9.25 29.82 9.25 30.5 9.25 C30.768125 8.651875 31.03625 8.05375 31.3125 7.4375 C32.49917406 5.25152146 33.59599113 3.83667406 35.5 2.25 C36.16 2.25 36.82 2.25 37.5 2.25 C37.17 3.9 36.84 5.55 36.5 7.25 C37.098125 7.394375 37.69625 7.53875 38.3125 7.6875 C40.06150404 8.1372439 41.78677023 8.67892341 43.5 9.25 C43.5 9.91 43.5 10.57 43.5 11.25 C44.593125 11.353125 45.68625 11.45625 46.8125 11.5625 C50.55975155 12.26114012 51.15962741 12.56397238 53.5 15.25 C53.90992187 14.7446875 54.31984375 14.239375 54.7421875 13.71875 C55.28101562 13.0690625 55.81984375 12.419375 56.375 11.75 C56.90867187 11.1003125 57.44234375 10.450625 57.9921875 9.78125 C58.48976563 9.2759375 58.98734375 8.770625 59.5 8.25 C60.16 8.25 60.82 8.25 61.5 8.25 C60.50928652 10.99351424 59.68493476 13.03864599 57.75 15.25 C57.3375 15.91 56.925 16.57 56.5 17.25 C57.35071899 20.42086167 58.67094266 22.506414 60.5 25.25 C61.20812814 27.57108669 61.88024152 29.90377147 62.5 32.25 C62.5825 31.13625 62.665 30.0225 62.75 28.875 C63.5 25.25 63.5 25.25 65.3125 24 C66.034375 23.7525 66.75625 23.505 67.5 23.25 C68.180625 22.71375 68.86125 22.1775 69.5625 21.625 C71.5 20.25 71.5 20.25 74.5 20.25 C74.7165625 21.1471875 74.7165625 21.1471875 74.9375 22.0625 C75.3872439 23.81150404 75.92892341 25.53677023 76.5 27.25 C77.985 27.745 77.985 27.745 79.5 28.25 C78.40098758 30.72277795 77.28487714 32.49873581 75.5 34.5625 C73.1520006 37.71762419 72.49594477 40.46540987 71.5 44.25 C69.3056756 50.10153172 65.50357704 53.67870867 60.5 57.25 C57 58.6875 57 58.6875 54.5 59.25 C55.16 60.24 55.82 61.23 56.5 62.25 C58.0541425 69.41910895 57.79434823 75.596038 53.8125 81.9375 C47.11542509 88.63457491 39.86244317 89.46394611 30.625 89.5 C22.47447482 89.47869507 16.92553763 88.60502601 10.5625 83.1875 C6.64353911 78.9650205 6.32018495 74.84224805 6.5 69.25 C6.80100866 64.58436584 7.30191893 61.72617508 10.5 58.25 C9.51 58.25 8.52 58.25 7.5 58.25 C7.5 57.59 7.5 56.93 7.5 56.25 C6.79875 56.023125 6.0975 55.79625 5.375 55.5625 C1.79867282 53.9298289 -0.68992509 51.99620957 -3.5 49.25 C-4.1875 46.875 -4.1875 46.875 -4.5 44.25 C-5.4644586 41.90175298 -6.46514123 39.56808364 -7.5 37.25 C-7.809375 36.38375 -8.11875 35.5175 -8.4375 34.625 C-9.71868195 31.76118153 -11.46590981 29.62310523 -13.5 27.25 C-12.18 27.25 -10.86 27.25 -9.5 27.25 C-10.16 25.27 -10.82 23.29 -11.5 21.25 C-10.84 21.25 -10.18 21.25 -9.5 21.25 C-9.17 20.26 -8.84 19.27 -8.5 18.25 C-6.85 18.58 -5.2 18.91 -3.5 19.25 C-3.17 20.9 -2.84 22.55 -2.5 24.25 C-1.84 24.25 -1.18 24.25 -0.5 24.25 C-0.5 23.26 -0.5 22.27 -0.5 21.25 C0.49 21.58 1.48 21.91 2.5 22.25 C2.52698189 23.87490954 2.54638757 25.49994633 2.5625 27.125 C2.57410156 28.02992187 2.58570312 28.93484375 2.59765625 29.8671875 C2.5 32.25 2.5 32.25 1.5 34.25 C2.16 34.25 2.82 34.25 3.5 34.25 C3.66435547 33.34507813 3.66435547 33.34507813 3.83203125 32.421875 C4.74523605 27.81872885 5.67466063 25.01711916 8.5 21.25 C8.5 17.64480257 7.36889222 16.05895724 5.3125 13.0625 C2.37864078 10.12864078 0.48823022 9.1774954 -3.5 8.25 C-4.125 5.375 -4.125 5.375 -4.5 2.25 C-2.5 0.25 -2.5 0.25 0 0 Z " fill="#47BA22" transform="translate(36.5,15.75)"/>
<path d="M0 0 C0 38.28 0 76.56 0 116 C-4.95 116.495 -4.95 116.495 -10 117 C-10 118.32 -10 119.64 -10 121 C-6.7 121.33 -3.4 121.66 0 122 C0 123.32 0 124.64 0 126 C-1.93681161 126.08107583 -3.8745934 126.13922475 -5.8125 126.1875 C-6.89144531 126.22230469 -7.97039063 126.25710937 -9.08203125 126.29296875 C-12 126 -12 126 -13.88671875 124.61328125 C-15 123 -15 123 -15 121 C-15.99 120.67 -16.98 120.34 -18 120 C-18.15411609 106.98674031 -18.30229466 93.9734277 -18.4429636 80.9600153 C-18.50847185 74.91690948 -18.57599932 68.87384048 -18.64819336 62.83081055 C-18.71783254 56.99534556 -18.78209973 51.15984354 -18.84269524 45.32427788 C-18.86670893 43.10161644 -18.89263471 40.87897478 -18.92053413 38.65635872 C-18.95937914 35.53534153 -18.99132965 32.41432224 -19.02172852 29.29321289 C-19.04114754 27.92511223 -19.04114754 27.92511223 -19.06095886 26.52937317 C-19.19541319 10.06131538 -19.19541319 10.06131538 -14 4 C-9.76598781 0.68144991 -5.31559458 0 0 0 Z " fill="#945631" transform="translate(20,0)"/>
<path d="M0 0 C0.33 0 0.66 0 1 0 C1.33 31.35 1.66 62.7 2 95 C2.33 95 2.66 95 3 95 C3.25 102.5 3.25 102.5 1 107 C-40.25 107 -81.5 107 -124 107 C-123.505 106.01 -123.505 106.01 -123 105 C-122.34 105.33 -121.68 105.66 -121 106 C-121.495 103.03 -121.495 103.03 -122 100 C-121.34 100 -120.68 100 -120 100 C-119.59136719 100.64453125 -119.18273437 101.2890625 -118.76171875 101.953125 C-117.11650344 104.28454108 -117.11650344 104.28454108 -114.08203125 104.609375 C-113.00308594 104.65578125 -111.92414063 104.7021875 -110.8125 104.75 C-109.72582031 104.80671875 -108.63914062 104.8634375 -107.51953125 104.921875 C-106.68808594 104.94765625 -105.85664062 104.9734375 -105 105 C-105 103.68 -105 102.36 -105 101 C-108.3 101 -111.6 101 -115 101 C-115.38218767 99.34385343 -115.71395102 97.67542976 -116 96 C-115 95 -115 95 -112.71484375 94.90234375 C-111.79832031 94.91394531 -110.88179687 94.92554687 -109.9375 94.9375 C-108.55884766 94.95103516 -108.55884766 94.95103516 -107.15234375 94.96484375 C-106.08693359 94.98224609 -106.08693359 94.98224609 -105 95 C-105 94.34 -105 93.68 -105 93 C-72.66 92.67 -40.32 92.34 -7 92 C-7 91.34 -7 90.68 -7 90 C-6.195625 89.38125 -5.39125 88.7625 -4.5625 88.125 C-1.71551521 85.76408578 -1.51816378 85.47624607 -1 82 C-0.88254115 79.33182976 -0.81509419 76.68748361 -0.79467773 74.01855469 C-0.78477814 73.2181778 -0.77487854 72.4178009 -0.76467896 71.59317017 C-0.73314058 68.95276834 -0.70833687 66.31234853 -0.68359375 63.671875 C-0.6630176 61.83912697 -0.64202096 60.00638361 -0.62062073 58.17364502 C-0.56546829 53.35355418 -0.51602892 48.533421 -0.46777344 43.71325684 C-0.41750854 38.79317463 -0.36184852 33.87315379 -0.30664062 28.953125 C-0.19914257 19.30213578 -0.09767907 9.65109324 0 0 Z " fill="#E0B879" transform="translate(125,21)"/>
<path d="M0 0 C2.5 0.25 2.5 0.25 4.5 2.25 C4.603125 3.508125 4.70625 4.76625 4.8125 6.0625 C5.17392228 9.41943912 5.58691035 10.37525316 7.625 13.3125 C10.45044416 15.63391706 10.45044416 15.63391706 14.3125 15.0625 C15.8903125 14.6603125 15.8903125 14.6603125 17.5 14.25 C17.83 13.26 18.16 12.27 18.5 11.25 C20.27734375 10.58984375 20.27734375 10.58984375 22.4375 10.1875 C25.85102341 9.54738154 25.85102341 9.54738154 28.5 7.25 C28.5 7.91 28.5 8.57 28.5 9.25 C29.16 9.25 29.82 9.25 30.5 9.25 C30.768125 8.651875 31.03625 8.05375 31.3125 7.4375 C32.49917406 5.25152146 33.59599113 3.83667406 35.5 2.25 C36.16 2.25 36.82 2.25 37.5 2.25 C37.17 3.9 36.84 5.55 36.5 7.25 C37.098125 7.394375 37.69625 7.53875 38.3125 7.6875 C40.06150404 8.1372439 41.78677023 8.67892341 43.5 9.25 C43.5 9.91 43.5 10.57 43.5 11.25 C45.81 11.58 48.12 11.91 50.5 12.25 C50.995 13.735 50.995 13.735 51.5 15.25 C49.43243723 18.0472908 48.35559629 18.27692273 44.8125 18.9375 C43.719375 19.040625 42.62625 19.14375 41.5 19.25 C42.428125 19.188125 43.35625 19.12625 44.3125 19.0625 C47.5 19.25 47.5 19.25 49.375 20.625 C50.5 22.25 50.5 22.25 50.5 24.25 C51.16 24.25 51.82 24.25 52.5 24.25 C52.995 26.23 52.995 26.23 53.5 28.25 C54.16 28.25 54.82 28.25 55.5 28.25 C55.81615167 34.15149781 55.4976723 39.03762951 52.5 44.25 C50.63028949 46.32387431 48.83077432 47.61845798 46.5 49.25 C45.78199219 49.78625 45.06398437 50.3225 44.32421875 50.875 C40.59557574 52.69032827 37.2338762 52.57852652 33.1875 52.4375 C32.07665039 52.41719727 32.07665039 52.41719727 30.94335938 52.39648438 C29.12858925 52.36135979 27.31419712 52.30755972 25.5 52.25 C25.5 51.92 25.5 51.59 25.5 51.25 C30.45 50.92 35.4 50.59 40.5 50.25 C40.83 48.27 41.16 46.29 41.5 44.25 C36.88 44.25 32.26 44.25 27.5 44.25 C30.3290723 41.4209277 30.88144425 40.87388892 34.5 40.25 C34.5 39.59 34.5 38.93 34.5 38.25 C33.18 38.25 31.86 38.25 30.5 38.25 C30.005 35.28 30.005 35.28 29.5 32.25 C28.84 32.25 28.18 32.25 27.5 32.25 C27.108125 31.59 26.71625 30.93 26.3125 30.25 C24.53516815 27.82398486 24.53516815 27.82398486 20.8125 28 C19.719375 28.0825 18.62625 28.165 17.5 28.25 C17.83 28.91 18.16 29.57 18.5 30.25 C18.479375 31.075 18.45875 31.9 18.4375 32.75 C18.21706155 35.42653739 18.21706155 35.42653739 20.5 37.25 C23.07061311 37.89767793 23.07061311 37.89767793 25.5 38.25 C25.17 39.24 24.84 40.23 24.5 41.25 C21.3125 41.5625 21.3125 41.5625 17.5 41.25 C14.6875 38.8125 14.6875 38.8125 12.5 36.25 C11.84 35.92 11.18 35.59 10.5 35.25 C10.1309795 25.83997722 10.1309795 25.83997722 12.5 21.25 C10.85 22.57 9.2 23.89 7.5 25.25 C7.5 22.25 7.5 22.25 8.375 20 C8.52463389 16.70805447 7.94864258 16.07512229 5.9375 13.5625 C3.10448227 10.51053711 0.63372022 9.13579719 -3.5 8.25 C-4.125 5.375 -4.125 5.375 -4.5 2.25 C-2.5 0.25 -2.5 0.25 0 0 Z " fill="#BCD94C" transform="translate(36.5,15.75)"/>
<path d="M0 0 C1.65 0.33 3.3 0.66 5 1 C5.33 2.65 5.66 4.3 6 6 C6.66 6 7.32 6 8 6 C8 5.01 8 4.02 8 3 C8.99 3.33 9.98 3.66 11 4 C11.02698189 5.62490954 11.04638757 7.24994633 11.0625 8.875 C11.07410156 9.77992187 11.08570312 10.68484375 11.09765625 11.6171875 C11 14 11 14 10 16 C10.66 16 11.32 16 12 16 C12.08636719 15.38511719 12.17273438 14.77023438 12.26171875 14.13671875 C13.42260605 7.45895416 13.42260605 7.45895416 16.4375 5.0625 C17.283125 4.711875 18.12875 4.36125 19 4 C19.99 3.34 20.98 2.68 22 2 C21.125 6.875 21.125 6.875 20 8 C19.92820036 9.51928038 19.91607993 11.04167482 19.9375 12.5625 C19.94652344 13.38878906 19.95554687 14.21507812 19.96484375 15.06640625 C19.97644531 15.70449219 19.98804687 16.34257813 20 17 C20.66 16.01 21.32 15.02 22 14 C22.474375 15.134375 22.94875 16.26875 23.4375 17.4375 C24.63622083 20.75740166 24.63622083 20.75740166 26 22 C28.33297433 22.04092937 30.66705225 22.04241723 33 22 C33.33 21.34 33.66 20.68 34 20 C33.236875 20.061875 32.47375 20.12375 31.6875 20.1875 C29 20 29 20 27.1875 18.8125 C25.61282231 16.40904458 25.78789027 14.82812975 26 12 C26 11.01 26 10.02 26 9 C32.48292295 8.6330421 32.48292295 8.6330421 34.9375 10.375 C36 12 36 12 36 14 C36.66 14 37.32 14 38 14 C38 14.99 38 15.98 38 17 C38.99 17.33 39.98 17.66 41 18 C40.34 18 39.68 18 39 18 C39 18.66 39 19.32 39 20 C40.32 20 41.64 20 43 20 C43 20.66 43 21.32 43 22 C42.01 22.66 41.02 23.32 40 24 C39.505 24.495 39.505 24.495 39 25 C42.63 25.33 46.26 25.66 50 26 C49.625 28.9375 49.625 28.9375 49 32 C44.93070891 34.03464555 39.78540556 33.31714937 35.3125 33.375 C34.23548828 33.41238281 33.15847656 33.44976562 32.04882812 33.48828125 C24.9639727 33.56647095 21.23367078 32.88285017 16 28 C15.34 27.01 14.68 26.02 14 25 C14.33 27.31 14.66 29.62 15 32 C15.78375 32.268125 16.5675 32.53625 17.375 32.8125 C20 34 20 34 22 37 C21.01 38.32 20.02 39.64 19 41 C17.515 40.505 17.515 40.505 16 40 C16 39.34 16 38.68 16 38 C15.29875 37.773125 14.5975 37.54625 13.875 37.3125 C10.29867282 35.6798289 7.81007491 33.74620957 5 31 C4.3125 28.625 4.3125 28.625 4 26 C3.0355414 23.65175298 2.03485877 21.31808364 1 19 C0.690625 18.13375 0.38125 17.2675 0.0625 16.375 C-1.21868195 13.51118153 -2.96590981 11.37310523 -5 9 C-3.68 9 -2.36 9 -1 9 C-1.66 7.02 -2.32 5.04 -3 3 C-2.34 3 -1.68 3 -1 3 C-0.67 2.01 -0.34 1.02 0 0 Z " fill="#76BF22" transform="translate(28,34)"/>
<path d="M0 0 C0.69480469 -0.01998047 1.38960937 -0.03996094 2.10546875 -0.06054688 C7.27508011 -0.05567907 10.17802876 1.16370024 14.125 4.4375 C17.20177984 7.57946585 17.58073076 9.96304686 17.625 14.3125 C17.52530768 18.20524788 17.3765419 20.95406805 14.9375 24.0625 C9.0886489 29.00152982 3.09130784 29.02490262 -4.3203125 28.82421875 C-7.60951297 28.46638265 -9.16754472 28.22477728 -11.6875 26.1875 C-15.52068534 21.36863843 -16.32106574 18.00918833 -16.1953125 11.91015625 C-15.62089816 7.47595777 -13.30705587 4.85598188 -10.2265625 1.8046875 C-6.89567814 -0.13187318 -3.74539699 -0.03779758 0 0 Z " fill="#F8B93A" transform="translate(67.875,73.5625)"/>
<path d="M0 0 C0.66 0 1.32 0 2 0 C1.00928652 2.74351424 0.18493476 4.78864599 -1.75 7 C-2.1625 7.66 -2.575 8.32 -3 9 C-2.14928101 12.17086167 -0.82905734 14.256414 1 17 C1.70812814 19.32108669 2.38024152 21.65377147 3 24 C3.0825 22.88625 3.165 21.7725 3.25 20.625 C4 17 4 17 5.8125 15.75 C6.534375 15.5025 7.25625 15.255 8 15 C8.680625 14.46375 9.36125 13.9275 10.0625 13.375 C12 12 12 12 15 12 C15.144375 12.598125 15.28875 13.19625 15.4375 13.8125 C15.8872439 15.56150404 16.42892341 17.28677023 17 19 C17.99 19.33 18.98 19.66 20 20 C18.90098758 22.47277795 17.78487714 24.24873581 16 26.3125 C13.6520006 29.46762419 12.99594477 32.21540987 12 36 C9.87120149 41.67679603 6.24885896 45.9528748 1 49 C-2.05420789 49.29038309 -3.98153742 48.80851676 -7 48 C-4.35761589 43.34437086 -4.35761589 43.34437086 -2.3125 41.375 C-0.65476213 39.95513278 -0.65476213 39.95513278 -1 37 C-1.4846875 37.51691406 -1.969375 38.03382812 -2.46875 38.56640625 C-7.87852238 43.88254795 -7.87852238 43.88254795 -11.3125 44.2421875 C-13.5 43.9375 -13.5 43.9375 -17 43 C-16.443125 42.5875 -15.88625 42.175 -15.3125 41.75 C-14.549375 41.1725 -13.78625 40.595 -13 40 C-12.154375 39.443125 -11.30875 38.88625 -10.4375 38.3125 C-5.28984414 33.42882649 -4.60719795 26.80061703 -4 20 C-4.66 20 -5.32 20 -6 20 C-6.33 18.68 -6.66 17.36 -7 16 C-7.66 16 -8.32 16 -9 16 C-9.37125 15.34 -9.7425 14.68 -10.125 14 C-11.77406895 11.81895526 -11.77406895 11.81895526 -13.97265625 11.734375 C-15.98367086 11.74856205 -17.99324516 11.86840952 -20 12 C-19.67 11.34 -19.34 10.68 -19 10 C-16.66752239 9.66073053 -14.33414529 9.32759934 -12 9 C-11.34 8.34 -10.68 7.68 -10 7 C-8.8553125 6.87625 -8.8553125 6.87625 -7.6875 6.75 C-3.72963859 5.64548054 -2.51576693 3.19570394 0 0 Z " fill="#74BD25" transform="translate(96,24)"/>
<path d="M0 0 C0.66 0 1.32 0 2 0 C2 35.97 2 71.94 2 109 C3.32 109 4.64 109 6 109 C6 73.03 6 37.06 6 0 C6.33 0 6.66 0 7 0 C7 36.96 7 73.92 7 112 C2.05 112.495 2.05 112.495 -3 113 C-3 114.32 -3 115.64 -3 117 C0.3 117.33 3.6 117.66 7 118 C7 119.32 7 120.64 7 122 C5.06318839 122.08107583 3.1254066 122.13922475 1.1875 122.1875 C0.10855469 122.22230469 -0.97039063 122.25710937 -2.08203125 122.29296875 C-5 122 -5 122 -6.88671875 120.61328125 C-8 119 -8 119 -8 117 C-8.99 116.67 -9.98 116.34 -11 116 C-11.15411609 102.98674031 -11.30229466 89.9734277 -11.4429636 76.9600153 C-11.50847185 70.91690948 -11.57599932 64.87384048 -11.64819336 58.83081055 C-11.71783254 52.99534556 -11.78209973 47.15984354 -11.84269524 41.32427788 C-11.86670893 39.10161644 -11.89263471 36.87897478 -11.92053413 34.65635872 C-11.95937914 31.53534153 -11.99132965 28.41432224 -12.02172852 25.29321289 C-12.04114754 23.92511223 -12.04114754 23.92511223 -12.06095886 22.52937317 C-12.10663057 16.93547074 -11.88029731 11.532082 -11 6 C-10.34 5.67 -9.68 5.34 -9 5 C-8.99576806 5.54353024 -8.99153612 6.08706049 -8.98717594 6.64706135 C-8.88391098 19.86696156 -8.77521745 33.08680752 -8.66066074 46.30661488 C-8.60542691 52.69959077 -8.5520061 59.09257124 -8.50268555 65.4855957 C-8.45504889 71.6517969 -8.40270622 77.81794162 -8.34705925 83.98407555 C-8.32663255 86.34005012 -8.30792 88.69604018 -8.29092598 91.05204201 C-8.26688906 94.34440348 -8.23683333 97.63665786 -8.20532227 100.92895508 C-8.1995668 101.90934753 -8.19381134 102.88973999 -8.18788147 103.89984131 C-8.17809265 104.79586563 -8.16830383 105.69188995 -8.15821838 106.61506653 C-8.15176583 107.3939816 -8.14531328 108.17289667 -8.1386652 108.97541523 C-8.07094158 111.20494952 -8.07094158 111.20494952 -7 114 C-6.38125 113.01 -6.38125 113.01 -5.75 112 C-4.88375 111.01 -4.88375 111.01 -4 110 C-2.68 110 -1.36 110 0 110 C0 73.7 0 37.4 0 0 Z " fill="#783E21" transform="translate(13,4)"/>
<path d="M0 0 C0.33 0 0.66 0 1 0 C1.33 31.35 1.66 62.7 2 95 C2.33 95 2.66 95 3 95 C3.25 102.5 3.25 102.5 1 107 C-40.25 107 -81.5 107 -124 107 C-123.505 106.01 -123.505 106.01 -123 105 C-122.34 105.33 -121.68 105.66 -121 106 C-121.495 103.03 -121.495 103.03 -122 100 C-121.34 100 -120.68 100 -120 100 C-119.59136719 100.64453125 -119.18273437 101.2890625 -118.76171875 101.953125 C-117.11650344 104.28454108 -117.11650344 104.28454108 -114.08203125 104.609375 C-113.00308594 104.65578125 -111.92414063 104.7021875 -110.8125 104.75 C-109.72582031 104.80671875 -108.63914062 104.8634375 -107.51953125 104.921875 C-106.68808594 104.94765625 -105.85664062 104.9734375 -105 105 C-105 104.34 -105 103.68 -105 103 C-103.81871521 102.98969254 -102.63743042 102.97938507 -101.42034912 102.96876526 C-90.29613756 102.87107362 -79.17198247 102.76834348 -68.04786301 102.66066074 C-62.3286405 102.6054605 -56.60941285 102.55204504 -50.89013672 102.50268555 C-45.37231222 102.45499937 -39.8545499 102.40265488 -34.33679962 102.34705925 C-32.23005977 102.32665501 -30.12330287 102.30793874 -28.0165329 102.29092598 C-25.06922744 102.26683936 -22.12203927 102.23679042 -19.17480469 102.20532227 C-18.30086563 102.1995668 -17.42692657 102.19381134 -16.52650452 102.18788147 C-15.72166122 102.17809265 -14.91681793 102.16830383 -14.08758545 102.15821838 C-13.39070995 102.15176583 -12.69383446 102.14531328 -11.97584152 102.1386652 C-9.86270538 101.99036462 -8.01516685 101.6540553 -6 101 C-4.80579785 99.3715005 -4.80579785 99.3715005 -4 97 C-3.49458176 95.81696289 -2.98916351 94.63392578 -2.46842957 93.41503906 C-0.77179951 88.86210293 -0.55901523 84.7432621 -0.56762695 79.921875 C-0.5574353 79.05263901 -0.54724365 78.18340302 -0.53674316 77.28782654 C-0.50677756 74.44181739 -0.4973725 71.59614573 -0.48828125 68.75 C-0.47142237 66.76602067 -0.4532705 64.78205194 -0.43388367 62.7980957 C-0.38650896 57.59665236 -0.35661861 52.39525202 -0.33044434 47.19366455 C-0.30057549 41.87772126 -0.25406692 36.56192594 -0.20898438 31.24609375 C-0.12309384 20.83080677 -0.05568528 10.41548922 0 0 Z " fill="#C8AB88" transform="translate(125,21)"/>
<path d="M0 0 C0.33 0 0.66 0 1 0 C1 36.3 1 72.6 1 110 C-1.475 110.99 -1.475 110.99 -4 112 C-5.77277259 113.52007842 -5.77277259 113.52007842 -7 115 C-7.83341149 112.09197558 -8.12383408 109.51596044 -8.12025452 106.49481201 C-8.12162918 105.59741302 -8.12300385 104.70001404 -8.12442017 103.77542114 C-8.12082489 102.79862396 -8.11722961 101.82182678 -8.11352539 100.81542969 C-8.11367142 99.7809671 -8.11381744 98.74650452 -8.1139679 97.68069458 C-8.11327117 94.26106673 -8.10548994 90.84149334 -8.09765625 87.421875 C-8.09579122 85.05104604 -8.09436772 82.68021669 -8.09336853 80.30938721 C-8.08955006 74.06883684 -8.07972545 67.82830973 -8.06866455 61.58776855 C-8.05843606 55.2199739 -8.05386782 48.8521755 -8.04882812 42.484375 C-8.03810262 29.98957311 -8.02103419 17.49478849 -8 5 C-7.01 5 -6.02 5 -5 5 C-2.38287957 8.89131719 -2.74693703 12.99932867 -2.8046875 17.50048828 C-2.80760803 18.35617401 -2.81052856 19.21185974 -2.8135376 20.09347534 C-2.82114074 21.94868405 -2.83336464 23.80387828 -2.84967041 25.65903091 C-2.87518835 28.59196119 -2.88822554 31.52471074 -2.89794922 34.45773315 C-2.92080641 40.68023659 -2.95931032 46.90259097 -3 53.125 C-3.04713104 60.3413167 -3.08792257 67.55754894 -3.11187744 74.773983 C-3.12488229 77.66910833 -3.14989458 80.56397552 -3.17529297 83.45901489 C-3.18255486 85.2254412 -3.18925872 86.99186992 -3.1953125 88.75830078 C-3.20564514 89.56769104 -3.21597778 90.3770813 -3.22662354 91.21099854 C-3.22699276 93.1421437 -3.12310787 95.07278277 -3 97 C-2.34 97.66 -1.68 98.32 -1 99 C-0.67 66.33 -0.34 33.66 0 0 Z " fill="#8E512E" transform="translate(12,4)"/>
<path d="M0 0 C-0.94055703 5.68046944 -1.86217076 9.72424312 -6 14 C-8 13 -8 13 -9 12 C-10.35293676 11.89262854 -11.71135419 11.85321362 -13.0684967 11.84178162 C-13.94494339 11.8319928 -14.82139008 11.82220398 -15.72439575 11.81211853 C-17.17771805 11.80348534 -17.17771805 11.80348534 -18.66040039 11.79467773 C-20.18217644 11.77982834 -20.18217644 11.77982834 -21.73469543 11.76467896 C-25.10565821 11.73295872 -28.4766351 11.7082651 -31.84765625 11.68359375 C-34.17793658 11.6630333 -36.5082131 11.64203708 -38.83848572 11.62062073 C-44.98533047 11.56530614 -51.13220939 11.5159384 -57.27911377 11.46777344 C-63.54613299 11.41762677 -69.81310231 11.36190512 -76.08007812 11.30664062 C-88.38667617 11.19894431 -100.69331745 11.097525 -113 11 C-113 12.32 -113 13.64 -113 15 C-113.99 14.67 -114.98 14.34 -116 14 C-115.67 12.35 -115.34 10.7 -115 9 C-111.7 9 -108.4 9 -105 9 C-105 8.34 -105 7.68 -105 7 C-72.66 6.67 -40.32 6.34 -7 6 C-7 5.34 -7 4.68 -7 4 C-2.52941176 0 -2.52941176 0 0 0 Z " fill="#C19A62" transform="translate(125,107)"/>
<path d="M0 0 C0 0.66 0 1.32 0 2 C-2.31 2 -4.62 2 -7 2 C-7.33 35.33 -7.66 68.66 -8 103 C-8.99 103.495 -8.99 103.495 -10 104 C-12.55676388 100.16485418 -12.25938019 97.07031991 -12.21118164 92.62890625 C-12.2098674 91.77497284 -12.20855316 90.92103943 -12.2071991 90.04122925 C-12.20070115 87.21487404 -12.18026534 84.38878829 -12.16015625 81.5625 C-12.15388694 79.60099582 -12.14864649 77.6394881 -12.14439392 75.67797852 C-12.13107911 70.51039854 -12.10664076 65.34293633 -12.07904053 60.17541504 C-12.03595314 51.90359063 -12.00622764 43.63173437 -11.9829998 35.35983276 C-11.97275885 32.46648815 -11.95570953 29.57323899 -11.93800354 26.67993164 C-11.9311765 24.91031988 -11.92456775 23.14070727 -11.91821289 21.37109375 C-11.91147552 20.56372772 -11.90473816 19.75636169 -11.89779663 18.92453003 C-11.89115462 15.68062342 -11.96641739 13.10074783 -13 10 C-13.99 10.495 -13.99 10.495 -15 11 C-15 10.34 -15 9.68 -15 9 C-15.66 8.67 -16.32 8.34 -17 8 C-13.40788992 3.12499346 -11.33344925 1.40231884 -5.375 0.375 C-2 0 -2 0 0 0 Z " fill="#A56238" transform="translate(20,0)"/>
<path d="M0 0 C3.59786442 0.15642889 5.49483274 0.59040493 8.3125 2.875 C10 5 10 5 11 8 C11.33 6.35 11.66 4.7 12 3 C12.33 3 12.66 3 13 3 C13.31615167 8.90149781 12.9976723 13.78762951 10 19 C8.13028949 21.07387431 6.33077432 22.36845798 4 24 C3.28199219 24.53625 2.56398438 25.0725 1.82421875 25.625 C-1.90442426 27.44032827 -5.2661238 27.32852652 -9.3125 27.1875 C-10.42334961 27.16719727 -10.42334961 27.16719727 -11.55664062 27.14648438 C-13.37141075 27.11135979 -15.18580288 27.05755972 -17 27 C-17 26.67 -17 26.34 -17 26 C-12.05 25.67 -7.1 25.34 -2 25 C-1.67 23.02 -1.34 21.04 -1 19 C-5.62 19 -10.24 19 -15 19 C-12.1709277 16.1709277 -11.61855575 15.62388892 -8 15 C-8 14.34 -8 13.68 -8 13 C-9.32 13 -10.64 13 -12 13 C-12.33 11.02 -12.66 9.04 -13 7 C-13.66 7 -14.32 7 -15 7 C-14.67 6.34 -14.34 5.68 -14 5 C-11.36 5.66 -8.72 6.32 -6 7 C-5.67 6.34 -5.34 5.68 -5 5 C-4.02149805 3.97895449 -3.02019573 2.9793879 -2 2 C-1.34 1.34 -0.68 0.68 0 0 Z " fill="#8FC532" transform="translate(79,41)"/>
<path d="M0 0 C0.69480469 -0.01998047 1.38960937 -0.03996094 2.10546875 -0.06054688 C8.27297841 -0.05473943 11.71685424 2.03440276 15.98828125 6.296875 C17.53095977 9.20198781 17.41902424 11.42075666 17.3125 14.6875 C17.27189453 16.30398437 17.27189453 16.30398437 17.23046875 17.953125 C17.19566406 18.77296875 17.16085938 19.5928125 17.125 20.4375 C15.475 20.7675 13.825 21.0975 12.125 21.4375 C11.8775 20.48875 11.63 19.54 11.375 18.5625 C10.50003428 15.32924027 10.50003428 15.32924027 8.125 14.53125 C6.125 13.4375 6.125 13.4375 5.296875 11.2734375 C5.15765625 10.46132812 5.0184375 9.64921875 4.875 8.8125 C4.72546875 7.99523437 4.5759375 7.17796875 4.421875 6.3359375 C4.27492188 5.39621094 4.27492188 5.39621094 4.125 4.4375 C1.815 4.4375 -0.495 4.4375 -2.875 4.4375 C-2.99875 5.18 -3.1225 5.9225 -3.25 6.6875 C-3.99427018 9.96228878 -4.79646804 12.45275343 -7.3125 14.75 C-9.67787838 17.30460865 -10.59654738 20.21092909 -11.875 23.4375 C-12.535 23.4375 -13.195 23.4375 -13.875 23.4375 C-16.50515677 18.87154784 -16.54259857 14.59103532 -15.875 9.4375 C-12.08571558 1.99426274 -8.15907695 -0.08233931 0 0 Z " fill="#F6D357" transform="translate(67.875,73.5625)"/>
<path d="M0 0 C6.48292295 -0.3669579 6.48292295 -0.3669579 8.9375 1.375 C10 3 10 3 10 5 C10.66 5 11.32 5 12 5 C12 5.99 12 6.98 12 8 C12.99 8.33 13.98 8.66 15 9 C14.34 9 13.68 9 13 9 C13 9.66 13 10.32 13 11 C14.32 11 15.64 11 17 11 C17 11.66 17 12.32 17 13 C16.01 13.66 15.02 14.32 14 15 C13.67 15.33 13.34 15.66 13 16 C16.63 16.33 20.26 16.66 24 17 C23.625 19.9375 23.625 19.9375 23 23 C17.88427171 25.55786415 9.6176534 24.79158465 4 24 C-0.19470003 22.22376151 -2.78416647 19.90780309 -5.21484375 16.09375 C-6.16834851 13.55107063 -6.01792922 11.92191868 -5.625 9.25 C-5.51414063 8.45078125 -5.40328125 7.6515625 -5.2890625 6.828125 C-5.19367187 6.22484375 -5.09828125 5.6215625 -5 5 C-4.69449219 5.61359375 -4.38898437 6.2271875 -4.07421875 6.859375 C-2.41311402 10.19393772 -2.41311402 10.19393772 0 13 C3.62563814 13.33380814 3.62563814 13.33380814 7 13 C7.33 12.34 7.66 11.68 8 11 C7.236875 11.061875 6.47375 11.12375 5.6875 11.1875 C3 11 3 11 1.1875 9.8125 C-0.38717769 7.40904458 -0.21210973 5.82812975 0 3 C0 2.01 0 1.02 0 0 Z " fill="#85C32E" transform="translate(54,43)"/>
<path d="M0 0 C0.33 0 0.66 0 1 0 C1.00423194 0.54353024 1.00846388 1.08706049 1.01282406 1.64706135 C1.11608902 14.86696156 1.22478255 28.08680752 1.33933926 41.30661488 C1.39457309 47.69959077 1.4479939 54.09257124 1.49731445 60.4855957 C1.54495111 66.6517969 1.59729378 72.81794162 1.65294075 78.98407555 C1.67336745 81.34005012 1.69208 83.69604018 1.70907402 86.05204201 C1.73311094 89.34440348 1.76316667 92.63665786 1.79467773 95.92895508 C1.8004332 96.90934753 1.80618866 97.88973999 1.81211853 98.89984131 C1.82190735 99.79586563 1.83169617 100.69188995 1.84178162 101.61506653 C1.84823417 102.3939816 1.85468672 103.17289667 1.8613348 103.97541523 C1.92905842 106.20494952 1.92905842 106.20494952 3 109 C3.66 108.01 4.32 107.02 5 106 C5.99 106.33 6.98 106.66 8 107 C7.67 108.65 7.34 110.3 7 112 C10.3 112.33 13.6 112.66 17 113 C17 114.32 17 115.64 17 117 C15.06318839 117.08107583 13.1254066 117.13922475 11.1875 117.1875 C10.10855469 117.22230469 9.02960937 117.25710937 7.91796875 117.29296875 C5 117 5 117 3.11328125 115.61328125 C2 114 2 114 2 112 C1.01 111.67 0.02 111.34 -1 111 C-1.15411609 97.98674031 -1.30229466 84.9734277 -1.4429636 71.9600153 C-1.50847185 65.91690948 -1.57599932 59.87384048 -1.64819336 53.83081055 C-1.71783254 47.99534556 -1.78209973 42.15984354 -1.84269524 36.32427788 C-1.86670893 34.10161644 -1.89263471 31.87897478 -1.92053413 29.65635872 C-1.95937914 26.53534153 -1.99132965 23.41432224 -2.02172852 20.29321289 C-2.04114754 18.92511223 -2.04114754 18.92511223 -2.06095886 17.52937317 C-2.10664506 11.93369597 -1.79377033 6.54391644 -1 1 C-0.67 0.67 -0.34 0.34 0 0 Z " fill="#5F2804" transform="translate(3,9)"/>
<path d="M0 0 C0.66 0 1.32 0 2 0 C1.00928652 2.74351424 0.18493476 4.78864599 -1.75 7 C-2.1625 7.66 -2.575 8.32 -3 9 C-2.14928101 12.17086167 -0.82905734 14.256414 1 17 C1.58580372 18.48331951 2.12522409 19.98552754 2.625 21.5 C3.01558594 22.66015625 3.01558594 22.66015625 3.4140625 23.84375 C4 26 4 26 4 29 C3.34 29 2.68 29 2 29 C1.87625 29.804375 1.87625 29.804375 1.75 30.625 C-0.09721371 36.47451009 -3.92571052 40.77977783 -9 44 C-11.89786597 44.11507771 -14.1318773 43.64285509 -17 43 C-16.443125 42.5875 -15.88625 42.175 -15.3125 41.75 C-14.549375 41.1725 -13.78625 40.595 -13 40 C-12.154375 39.443125 -11.30875 38.88625 -10.4375 38.3125 C-5.28984414 33.42882649 -4.60719795 26.80061703 -4 20 C-4.66 20 -5.32 20 -6 20 C-6.33 18.68 -6.66 17.36 -7 16 C-7.66 16 -8.32 16 -9 16 C-9.37125 15.34 -9.7425 14.68 -10.125 14 C-11.77406895 11.81895526 -11.77406895 11.81895526 -13.97265625 11.734375 C-15.98367086 11.74856205 -17.99324516 11.86840952 -20 12 C-19.67 11.34 -19.34 10.68 -19 10 C-16.66752239 9.66073053 -14.33414529 9.32759934 -12 9 C-11.34 8.34 -10.68 7.68 -10 7 C-8.8553125 6.87625 -8.8553125 6.87625 -7.6875 6.75 C-3.72963859 5.64548054 -2.51576693 3.19570394 0 0 Z " fill="#53CE37" transform="translate(96,24)"/>
<path d="M0 0 C0.53625 0.7425 1.0725 1.485 1.625 2.25 C4.24177534 5.2799504 6.45962395 7.12568327 10 9 C13.58357241 9.25015873 13.58357241 9.25015873 17 9 C17.62825684 9.16056885 18.25651367 9.3211377 18.90380859 9.48657227 C21.32228796 10.07893916 23.42610903 10.08017308 25.9140625 10.02734375 C26.83960937 10.01509766 27.76515625 10.00285156 28.71875 9.99023438 C30.66413442 9.95493506 32.60945354 9.91584202 34.5546875 9.87304688 C35.93914062 9.85661133 35.93914062 9.85661133 37.3515625 9.83984375 C38.19541504 9.82300537 39.03926758 9.80616699 39.90869141 9.78881836 C42 10 42 10 44 12 C41.03 12.66 38.06 13.32 35 14 C35 14.66 35 15.32 35 16 C38.63 16.33 42.26 16.66 46 17 C44.68 17.33 43.36 17.66 42 18 C42 18.66 42 19.32 42 20 C37.25 19.125 37.25 19.125 35 18 C33.13844082 17.8583755 31.27237255 17.77394683 29.40625 17.71875 C27.73755859 17.66267578 27.73755859 17.66267578 26.03515625 17.60546875 C24.86855469 17.57066406 23.70195313 17.53585938 22.5 17.5 C20.19778652 17.43131518 17.89568851 17.35860367 15.59375 17.28125 C14.56958984 17.25095703 13.54542969 17.22066406 12.49023438 17.18945312 C10 17 10 17 8 16 C7.896875 15.38125 7.79375 14.7625 7.6875 14.125 C6.70001083 11.07276075 4.70368948 10.5826475 2 9 C-0.09543806 6.00651705 -0.1999733 3.59951941 0 0 Z " fill="#3AC129" transform="translate(41,57)"/>
<path d="M0 0 C5.94 0.99 5.94 0.99 12 2 C10.47005208 3.7578125 8.94010417 5.515625 7.41015625 7.2734375 C4.53224336 10.79708707 4.81660197 14.07710407 4.8125 18.4375 C4.80025391 19.11876953 4.78800781 19.80003906 4.77539062 20.50195312 C4.76444152 24.22829809 4.87994381 25.81991571 7 29 C5.23046875 29.67578125 5.23046875 29.67578125 3 30 C-0.7604007 27.84341409 -3.5017153 24.72610224 -4.70703125 20.55078125 C-5.27183321 15.63323885 -5.18128826 10.82359371 -4 6 C-2.5 4.25 -2.5 4.25 -1 3 C-0.67 2.01 -0.34 1.02 0 0 Z " fill="#52BB23" transform="translate(48,72)"/>
<path d="M0 0 C35.31 0 70.62 0 107 0 C107 1.33333333 107 2.66666667 107 4 C105.35 4 103.7 4 102 4 C102 3.67 102 3.34 102 3 C89.14381892 2.97685784 76.28764277 2.95907531 63.43144512 2.94818783 C57.46218316 2.94296312 51.49293542 2.9358729 45.52368164 2.92456055 C39.76600313 2.91371709 34.00833833 2.90772005 28.25065041 2.90512276 C26.05096025 2.90327115 23.85127087 2.89965557 21.65158653 2.89426994 C18.57719663 2.88704022 15.50286379 2.88600988 12.4284668 2.88647461 C11.51352951 2.88287933 10.59859222 2.87928406 9.65592957 2.87557983 C8.81880432 2.8769545 7.98167908 2.87832916 7.1191864 2.87974548 C6.0282444 2.87836279 6.0282444 2.87836279 4.91526318 2.87695217 C2.77749209 2.93263956 2.77749209 2.93263956 0 4 C0 2.68 0 1.36 0 0 Z " fill="#D3AE77" transform="translate(12,118)"/>
<path d="M0 0 C0.99 0 1.98 0 3 0 C3 33.99 3 67.98 3 103 C2.67 103 2.34 103 2 103 C1.505 96.565 1.505 96.565 1 90 C0.34 91.65 -0.32 93.3 -1 95 C-1.99 95.495 -1.99 95.495 -3 96 C-2.67 95.01 -2.34 94.02 -2 93 C-0.51270849 83.10605841 -0.77909395 72.96780508 -0.68359375 62.98828125 C-0.66298308 61.16553826 -0.64198566 59.34279961 -0.62062073 57.52006531 C-0.56582421 52.7576146 -0.51623061 47.99512385 -0.46777344 43.23260498 C-0.41724563 38.35881043 -0.36172401 33.48507294 -0.30664062 28.61132812 C-0.19957914 19.07426767 -0.09802205 9.53715735 0 0 Z " fill="#F5DFB4" transform="translate(124,13)"/>
<path d="M0 0 C-0.33 1.65 -0.66 3.3 -1 5 C-0.401875 5.144375 0.19625 5.28875 0.8125 5.4375 C2.56150404 5.8872439 4.28677023 6.42892341 6 7 C6 7.66 6 8.32 6 9 C8.31 9.33 10.62 9.66 13 10 C13.495 11.485 13.495 11.485 14 13 C12.9375 14.5 12.9375 14.5 11 16 C4.86153846 16.43076923 4.86153846 16.43076923 2 15 C2 13.68 2 12.36 2 11 C-0.58577227 11.06013424 -3.1658681 11.14717122 -5.75 11.25 C-6.84441406 11.27126953 -6.84441406 11.27126953 -7.9609375 11.29296875 C-11.59404522 11.45811001 -13.58449248 11.64423866 -16.390625 14.046875 C-17.18726563 15.01367188 -17.18726563 15.01367188 -18 16 C-18.66 16 -19.32 16 -20 16 C-20 15.34 -20 14.68 -20 14 C-20.66 14 -21.32 14 -22 14 C-22 13.34 -22 12.68 -22 12 C-21.34 12 -20.68 12 -20 12 C-19.67 11.01 -19.34 10.02 -19 9 C-17.22265625 8.33984375 -17.22265625 8.33984375 -15.0625 7.9375 C-11.64897659 7.29738154 -11.64897659 7.29738154 -9 5 C-9 5.66 -9 6.32 -9 7 C-8.34 7 -7.68 7 -7 7 C-6.731875 6.401875 -6.46375 5.80375 -6.1875 5.1875 C-3.37142857 0 -3.37142857 0 0 0 Z " fill="#97D745" transform="translate(74,18)"/>
<path d="M0 0 C0.33 0 0.66 0 1 0 C1.33 31.35 1.66 62.7 2 95 C2.33 95 2.66 95 3 95 C3.26785714 103.03571429 3.26785714 103.03571429 1 107 C-0.45792884 107.05399736 -1.91642712 107.09279177 -3.375 107.125 C-4.18710938 107.14820313 -4.99921875 107.17140625 -5.8359375 107.1953125 C-8 107 -8 107 -10 105 C-9.55914062 104.59265625 -9.11828125 104.1853125 -8.6640625 103.765625 C-6.87720078 101.86970599 -5.66407219 100.01180765 -4.375 97.75 C-3.94960937 97.02296875 -3.52421875 96.2959375 -3.0859375 95.546875 C-0.63863594 89.80716056 -0.84008636 83.45680698 -0.79467773 77.31079102 C-0.78477814 76.47096176 -0.77487854 75.63113251 -0.76467896 74.76585388 C-0.73329212 72.01189923 -0.70839753 69.25792738 -0.68359375 66.50390625 C-0.66300448 64.5857653 -0.64200751 62.66762868 -0.62062073 60.74949646 C-0.56560377 55.71737189 -0.51610517 50.68520776 -0.46777344 45.65301514 C-0.41740903 40.51147977 -0.36180118 35.37000138 -0.30664062 30.22851562 C-0.19930851 20.1523925 -0.09780882 10.07621976 0 0 Z " fill="#CBAB7C" transform="translate(125,21)"/>
<path d="M0 0 C0 0.99 0 1.98 0 3 C0.30342192 4.56858296 0.63910382 6.13113523 1 7.6875 C1.185625 8.49574219 1.37125 9.30398437 1.5625 10.13671875 C1.706875 10.75160156 1.85125 11.36648437 2 12 C1.01 11.34 0.02 10.68 -1 10 C-3.33199388 9.92094936 -5.66832622 9.91201231 -8 10 C-7.67 10.66 -7.34 11.32 -7 12 C-7.020625 12.825 -7.04125 13.65 -7.0625 14.5 C-7.28293845 17.17653739 -7.28293845 17.17653739 -5 19 C-2.42938689 19.64767793 -2.42938689 19.64767793 0 20 C-0.33 20.99 -0.66 21.98 -1 23 C-4.1875 23.3125 -4.1875 23.3125 -8 23 C-10.8125 20.5625 -10.8125 20.5625 -13 18 C-13.66 17.67 -14.32 17.34 -15 17 C-15.78693051 8.97330879 -15.78693051 8.97330879 -12.625 5.0625 C-11.75875 4.381875 -10.8925 3.70125 -10 3 C-9.34 2.34 -8.68 1.68 -8 1 C-5.34462628 0.43479997 -2.70855287 0.26211802 0 0 Z " fill="#96CE34" transform="translate(62,34)"/>
<path d="M0 0 C0.33 0.99 0.66 1.98 1 3 C0.01 4.485 0.01 4.485 -1 6 C-1.79887583 11.85059066 -1.17478689 18.50231538 1 24 C3.35832772 26.47208796 3.35832772 26.47208796 6 28 C6.66 28.66 7.32 29.32 8 30 C3.97669263 31.27568282 2.35333809 31.17035944 -1.5 29.3125 C-6.41492516 25.48126658 -8.57219026 19.57595863 -11 14 C-10.34 14 -9.68 14 -9 14 C-8.87044922 13.07767578 -8.87044922 13.07767578 -8.73828125 12.13671875 C-7.57508871 5.44569375 -7.57508871 5.44569375 -4.5 3.0625 C-3.675 2.711875 -2.85 2.36125 -2 2 C-1.34 1.34 -0.68 0.68 0 0 Z " fill="#4ECD33" transform="translate(49,36)"/>
<path d="M0 0 C2.31 0 4.62 0 7 0 C9.10396411 5.93317878 10.75971762 11.82777121 12 18 C11.01 18 10.02 18 9 18 C8.67 16.68 8.34 15.36 8 14 C5.03 14 2.06 14 -1 14 C-1.33 15.32 -1.66 16.64 -2 18 C-3.32 18 -4.64 18 -6 18 C-4.23536928 11.89262558 -2.30442525 5.92566493 0 0 Z " fill="#EC2D1C" transform="translate(65,78)"/>
<path d="M0 0 C0 0.66 0 1.32 0 2 C-2.31 2 -4.62 2 -7 2 C-7.02505615 3.09876465 -7.0501123 4.1975293 -7.07592773 5.32958984 C-7.17087355 9.44850167 -7.27087282 13.56727862 -7.37231445 17.68603516 C-7.41533668 19.4607424 -7.45703105 21.23548239 -7.49731445 23.01025391 C-7.91095908 41.15955016 -7.91095908 41.15955016 -9 50 C-9.66 49.67 -10.32 49.34 -11 49 C-11.02505615 47.92516357 -11.0501123 46.85032715 -11.07592773 45.74291992 C-11.17007495 41.75646978 -11.27027785 37.77019091 -11.37231445 33.78393555 C-11.41563562 32.05839035 -11.45731273 30.33280307 -11.49731445 28.60717773 C-11.55508526 26.12731236 -11.61876003 23.64765828 -11.68359375 21.16796875 C-11.70030624 20.39599655 -11.71701874 19.62402435 -11.73423767 18.82865906 C-11.82227895 15.64817067 -11.98745195 13.03764416 -13 10 C-13.99 10.495 -13.99 10.495 -15 11 C-15 10.34 -15 9.68 -15 9 C-15.66 8.67 -16.32 8.34 -17 8 C-13.40788992 3.12499346 -11.33344925 1.40231884 -5.375 0.375 C-2 0 -2 0 0 0 Z " fill="#AF6A3C" transform="translate(20,0)"/>
<path d="M0 0 C2.5 0.25 2.5 0.25 4.5 2.25 C4.603125 3.508125 4.70625 4.76625 4.8125 6.0625 C5.17089608 9.40348045 5.54405068 10.31089359 7.625 13.1875 C10.99494339 15.60506808 13.40123495 16.00889617 17.5 16.25 C17.5 16.91 17.5 17.57 17.5 18.25 C18.44875 18.04375 19.3975 17.8375 20.375 17.625 C21.921875 17.439375 21.921875 17.439375 23.5 17.25 C24.16 17.91 24.82 18.57 25.5 19.25 C24.2625 19.37375 23.025 19.4975 21.75 19.625 C18.59290755 20.00987523 16.27875737 20.64687075 13.5 22.25 C12.84 22.25 12.18 22.25 11.5 22.25 C10.13838689 23.21113866 8.80144802 24.20884159 7.5 25.25 C7.5 22.25 7.5 22.25 8.375 20 C8.52463389 16.70805447 7.94864258 16.07512229 5.9375 13.5625 C3.10448227 10.51053711 0.63372022 9.13579719 -3.5 8.25 C-4.125 5.375 -4.125 5.375 -4.5 2.25 C-2.5 0.25 -2.5 0.25 0 0 Z " fill="#6CCD47" transform="translate(36.5,15.75)"/>
<path d="M0 0 C3.375 0.875 3.375 0.875 5.375 2.875 C5.93141422 9.88581917 5.93141422 9.88581917 4.25 12.875 C1.42980125 14.379106 -0.48110056 14.32412849 -3.625 13.875 C-6 12.25 -6 12.25 -7.625 9.875 C-8.23475382 6.21647708 -8.07043026 4.56987121 -6.0625 1.4375 C-3.625 -0.125 -3.625 -0.125 0 0 Z " fill="#DFDECF" transform="translate(81.625,43.125)"/>
<path d="M0 0 C0.33 0 0.66 0 1 0 C1 36.3 1 72.6 1 110 C-0.32 110 -1.64 110 -3 110 C-3 106.04 -3 102.08 -3 98 C-2.34 98.33 -1.68 98.66 -1 99 C-0.67 66.33 -0.34 33.66 0 0 Z " fill="#945731" transform="translate(12,4)"/>
<path d="M0 0 C12.4650305 -0.04513674 24.93000696 -0.08185031 37.39510059 -0.10362434 C43.18278343 -0.11407337 48.97040758 -0.12825299 54.75805664 -0.15087891 C60.34067552 -0.17256737 65.92323786 -0.1845602 71.50589561 -0.18975449 C73.63860655 -0.19345743 75.77131429 -0.2006881 77.90400124 -0.21146011 C80.88504412 -0.22592186 83.86585166 -0.22798017 86.84692383 -0.22705078 C88.17725143 -0.23783661 88.17725143 -0.23783661 89.53445435 -0.24884033 C90.34633713 -0.246091 91.15821991 -0.24334167 91.9947052 -0.24050903 C92.69987683 -0.24235262 93.40504847 -0.24419621 94.13158894 -0.24609566 C96 -0 96 -0 99 2 C98.67 2.66 98.34 3.32 98 4 C97.45482003 3.85825914 96.90964006 3.71651829 96.34793949 3.57048225 C90.80358548 2.22065122 85.68445869 1.72054959 79.99194336 1.77294922 C79.14206848 1.77265717 78.2921936 1.77236511 77.41656494 1.77206421 C74.64088296 1.77344423 71.86547814 1.78894212 69.08984375 1.8046875 C67.15214688 1.80842236 65.2144481 1.8112671 63.27674866 1.81326294 C58.2018198 1.82086215 53.12700725 1.84047841 48.05212402 1.8626709 C42.86354139 1.88320967 37.67493978 1.89228177 32.48632812 1.90234375 C22.32415969 1.9237281 12.16210776 1.95887963 2 2 C1.67 8.6 1.34 15.2 1 22 C0.67 22 0.34 22 0 22 C0 14.74 0 7.48 0 0 Z " fill="#FEFCC8" transform="translate(21,2)"/>
<path d="M0 0 C0.33 0 0.66 0 1 0 C0.67 36.63 0.34 73.26 0 111 C-0.33 111 -0.66 111 -1 111 C-1.15411609 97.98674031 -1.30229466 84.9734277 -1.4429636 71.9600153 C-1.50847185 65.91690948 -1.57599932 59.87384048 -1.64819336 53.83081055 C-1.71783254 47.99534556 -1.78209973 42.15984354 -1.84269524 36.32427788 C-1.86670893 34.10161644 -1.89263471 31.87897478 -1.92053413 29.65635872 C-1.95937914 26.53534153 -1.99132965 23.41432224 -2.02172852 20.29321289 C-2.04114754 18.92511223 -2.04114754 18.92511223 -2.06095886 17.52937317 C-2.10664506 11.93369597 -1.79377033 6.54391644 -1 1 C-0.67 0.67 -0.34 0.34 0 0 Z " fill="#583D38" transform="translate(3,9)"/>
<path d="M0 0 C6.27 0 12.54 0 19 0 C18.67 1.98 18.34 3.96 18 6 C15.17314012 7.41342994 12.71268563 7.24577366 9.5625 7.3125 C7.83193359 7.36857422 7.83193359 7.36857422 6.06640625 7.42578125 C3 7 3 7 1.08984375 5.16796875 C0 3 0 3 0 0 Z " fill="#BF110E" transform="translate(59,60)"/>
<path d="M0 0 C12.56077649 -0.1158215 25.12142606 -0.20467903 37.68262768 -0.25906086 C43.51525412 -0.28516077 49.34751538 -0.32056691 55.17993164 -0.37719727 C60.80797734 -0.43150164 66.43567166 -0.46141756 72.06395912 -0.47438622 C74.21181076 -0.48362882 76.35964304 -0.50167751 78.5073452 -0.52865028 C81.5146791 -0.56491891 84.52055896 -0.56994616 87.52807617 -0.56762695 C88.41712143 -0.58560333 89.30616669 -0.60357971 90.22215271 -0.62210083 C94.78191475 -0.58402191 96.43597502 -0.46250789 100.09199524 2.53547668 C100.72163681 3.34876938 101.35127838 4.16206207 102 5 C101.34 5.66 100.68 6.32 100 7 C99.71125 6.360625 99.4225 5.72125 99.125 5.0625 C98.17176549 2.84793921 98.17176549 2.84793921 96 2 C92.98000001 1.87701041 89.98160625 1.81420445 86.96044922 1.79467773 C86.02381439 1.78477814 85.08717957 1.77487854 84.12216187 1.76467896 C81.01636307 1.73301078 77.91054896 1.70828552 74.8046875 1.68359375 C72.65519811 1.66302881 70.50571281 1.64203247 68.35623169 1.62062073 C62.69109399 1.5653525 57.02591951 1.51596419 51.36071777 1.46777344 C45.58289302 1.41759306 39.80512187 1.36188894 34.02734375 1.30664062 C22.68494159 1.19900096 11.34249295 1.09756891 0 1 C0 0.67 0 0.34 0 0 Z " fill="#FAEBBB" transform="translate(21,1)"/>
<path d="M0 0 C0.66 0 1.32 0 2 0 C1.00928652 2.74351424 0.18493476 4.78864599 -1.75 7 C-2.1625 7.66 -2.575 8.32 -3 9 C-2.33903214 11.65245602 -2.33903214 11.65245602 -1 14 C-0.67 14.66 -0.34 15.32 0 16 C-1.32 16 -2.64 16 -4 16 C-4.66 17.32 -5.32 18.64 -6 20 C-6.33 18.68 -6.66 17.36 -7 16 C-7.66 16 -8.32 16 -9 16 C-9.37125 15.34 -9.7425 14.68 -10.125 14 C-11.77406895 11.81895526 -11.77406895 11.81895526 -13.97265625 11.734375 C-15.98367086 11.74856205 -17.99324516 11.86840952 -20 12 C-19.67 11.34 -19.34 10.68 -19 10 C-16.66752239 9.66073053 -14.33414529 9.32759934 -12 9 C-11.34 8.34 -10.68 7.68 -10 7 C-8.8553125 6.87625 -8.8553125 6.87625 -7.6875 6.75 C-3.72963859 5.64548054 -2.51576693 3.19570394 0 0 Z " fill="#6FCA48" transform="translate(96,24)"/>
<path d="M0 0 C2.31 0 4.62 0 7 0 C6.88185874 4.37844408 6.75761831 8.75665929 6.62768555 13.13476562 C6.58433411 14.62462641 6.54265916 16.11453695 6.50268555 17.60449219 C6.44498785 19.74429327 6.38129245 21.88384385 6.31640625 24.0234375 C6.26141968 25.95582275 6.26141968 25.95582275 6.20532227 27.92724609 C6 31 6 31 5 33 C4.34 33 3.68 33 3 33 C3 22.77 3 12.54 3 2 C2.01 2 1.02 2 0 2 C0 1.34 0 0.68 0 0 Z " fill="#A05F36" transform="translate(13,2)"/>
<path d="M0 0 C3.25 -0.3125 3.25 -0.3125 7 0 C9.5 2.125 9.5 2.125 11 5 C10.875 8.25 10.875 8.25 10 11 C8 12 8 12 5 11.1875 C2 10 2 10 0 8 C-0.125 5.5625 -0.125 5.5625 0 3 C0 2.01 0 1.02 0 0 Z " fill="#D7D8C2" transform="translate(54,43)"/>
<path d="M0 0 C4.455 0.99 4.455 0.99 9 2 C9.33 1.34 9.66 0.68 10 0 C10.144375 1.093125 10.28875 2.18625 10.4375 3.3125 C10.88288104 6.93122987 10.88288104 6.93122987 12 10 C12.66 10 13.32 10 14 10 C14 10.99 14 11.98 14 13 C10.84493858 13.93619813 8.03413498 14.1057123 4.75 14.0625 C3.85796875 14.05347656 2.9659375 14.04445313 2.046875 14.03515625 C1.37140625 14.02355469 0.6959375 14.01195312 0 14 C2.27364177 11.57000464 3.68273845 10.57194165 7 10 C7 9.34 7 8.68 7 8 C5.68 8 4.36 8 3 8 C2.67 6.02 2.34 4.04 2 2 C1.34 2 0.68 2 0 2 C0 1.34 0 0.68 0 0 Z " fill="#9FD038" transform="translate(64,46)"/>
<path d="M0 0 C0.680625 1.0209375 0.680625 1.0209375 1.375 2.0625 C7.29614083 8.68853854 14.42403388 12.82493613 23 15 C22.67 15.66 22.34 16.32 22 17 C20.04174127 17.02694851 18.08337774 17.04637218 16.125 17.0625 C15.03445312 17.07410156 13.94390625 17.08570312 12.8203125 17.09765625 C10 17 10 17 8 16 C7.896875 15.38125 7.79375 14.7625 7.6875 14.125 C6.70001083 11.07276075 4.70368948 10.5826475 2 9 C-0.09543806 6.00651705 -0.1999733 3.59951941 0 0 Z " fill="#1D8C12" transform="translate(41,57)"/>
<path d="M0 0 C0.66 0 1.32 0 2 0 C3.35386936 1.65002828 4.68678142 3.3174387 6 5 C8.98773248 6.49386624 12.0403158 6.14371602 15.3125 6.125 C16.62863281 6.12757812 17.94476563 6.13015625 19.30078125 6.1328125 C22.35920294 6.02300644 25.0391392 5.72160244 28 5 C27.67 6.32 27.34 7.64 27 9 C23.08379681 10.27149454 19.13427771 10.18378826 15.0625 10.1875 C14.00772461 10.20586914 14.00772461 10.20586914 12.93164062 10.22460938 C8.85819943 10.23606235 5.61120988 9.95405812 2 8 C1.25 6.125 1.25 6.125 1 4 C0.814375 3.2575 0.62875 2.515 0.4375 1.75 C0.293125 1.1725 0.14875 0.595 0 0 Z " fill="#44AD1F" transform="translate(52,95)"/>
<path d="M0 0 C0.66 0.99 1.32 1.98 2 3 C2.66 2.01 3.32 1.02 4 0 C4.99 0.33 5.98 0.66 7 1 C6.67 2.65 6.34 4.3 6 6 C9.3 6.33 12.6 6.66 16 7 C16 8.32 16 9.64 16 11 C14.06318839 11.08107583 12.1254066 11.13922475 10.1875 11.1875 C9.10855469 11.22230469 8.02960937 11.25710937 6.91796875 11.29296875 C4 11 4 11 2.11328125 9.61328125 C1 8 1 8 1 6 C0.34 6 -0.32 6 -1 6 C-0.67 4.02 -0.34 2.04 0 0 Z " fill="#5A2513" transform="translate(4,115)"/>
<path d="M0 0 C1.11084961 0.02707031 1.11084961 0.02707031 2.24414062 0.0546875 C4.0591571 0.10152663 5.87350166 0.17326211 7.6875 0.25 C5.47476932 1.39402884 3.45134942 2.32309423 1.0625 3.0625 C-1.45226888 4.05963921 -1.45226888 4.05963921 -2.625 6.375 C-3.51938816 10.11516866 -3.44276736 13.40711298 -3.3125 17.25 C-6.1097908 15.18243723 -6.33942273 14.10559629 -7 10.5625 C-7.103125 9.469375 -7.20625 8.37625 -7.3125 7.25 C-6.6525 7.25 -5.9925 7.25 -5.3125 7.25 C-5.3125 6.59 -5.3125 5.93 -5.3125 5.25 C-7.9525 4.92 -10.5925 4.59 -13.3125 4.25 C-8.95431535 -0.11678068 -5.82102479 -0.27050339 0 0 Z " fill="#B1D842" transform="translate(68.3125,28.75)"/>
<path d="M0 0 C1.98 0 3.96 0 6 0 C8.10396411 5.93317878 9.75971762 11.82777121 11 18 C10.01 18 9.02 18 8 18 C7.67 16.35 7.34 14.7 7 13 C4.69 12.67 2.38 12.34 0 12 C0 11.67 0 11.34 0 11 C1.65 11 3.3 11 5 11 C4.75368443 6.94914321 4.75368443 6.94914321 4 3 C2.07935207 1.4100567 2.07935207 1.4100567 0 1 C0 0.67 0 0.34 0 0 Z " fill="#EA1C15" transform="translate(66,78)"/>
<path d="M0 0 C2.5 0.25 2.5 0.25 4.5 2.25 C4.625 5.875 4.625 5.875 4.5 9.25 C2.5 10.25 2.5 10.25 -0.625 9.3125 C-1.57375 8.961875 -2.5225 8.61125 -3.5 8.25 C-4.125 5.375 -4.125 5.375 -4.5 2.25 C-2.5 0.25 -2.5 0.25 0 0 Z " fill="#F28328" transform="translate(36.5,15.75)"/>
<path d="M0 0 C0.33 0.99 0.66 1.98 1 3 C0.01 4.485 0.01 4.485 -1 6 C-1.24219315 8.97449608 -1.24219315 8.97449608 -1.125 12.1875 C-1.09792969 13.81751953 -1.09792969 13.81751953 -1.0703125 15.48046875 C-1.04710937 16.31191406 -1.02390625 17.14335938 -1 18 C-3.5654594 15.4345406 -3.54046087 13.52313332 -4 10 C-6.01136276 12.55991624 -7.62845496 15.04590299 -9 18 C-9.66 16.68 -10.32 15.36 -11 14 C-10.34 14 -9.68 14 -9 14 C-8.87044922 13.07767578 -8.87044922 13.07767578 -8.73828125 12.13671875 C-7.57508871 5.44569375 -7.57508871 5.44569375 -4.5 3.0625 C-3.675 2.711875 -2.85 2.36125 -2 2 C-1.34 1.34 -0.68 0.68 0 0 Z " fill="#6AD342" transform="translate(49,36)"/>
<path d="M0 0 C2.5 0.25 2.5 0.25 4.5 2.25 C4.8125 4.75 4.8125 4.75 4.5 7.25 C1.5 9.25 1.5 9.25 -1.125 8.9375 C-3.5 8.25 -3.5 8.25 -4.5 7.25 C-4.6875 4.8125 -4.6875 4.8125 -4.5 2.25 C-2.5 0.25 -2.5 0.25 0 0 Z " fill="#48D4D8" transform="translate(100.5,15.75)"/>
<path d="M0 0 C0.99 0 1.98 0 3 0 C3.26785714 8.03571429 3.26785714 8.03571429 1 12 C-0.45792884 12.05399736 -1.91642712 12.09279177 -3.375 12.125 C-4.18710938 12.14820313 -4.99921875 12.17140625 -5.8359375 12.1953125 C-8 12 -8 12 -10 10 C-9.13375 9.87625 -9.13375 9.87625 -8.25 9.75 C-5.28430694 8.76143565 -3.99316373 7.39179647 -2 5 C-0.74563813 2.36777038 -0.74563813 2.36777038 0 0 Z " fill="#F4EFE7" transform="translate(125,116)"/>
<path d="M0 0 C0.33 0 0.66 0 1 0 C1.08132642 3.04221065 1.14065374 6.0822238 1.1875 9.125 C1.22520508 10.40890625 1.22520508 10.40890625 1.26367188 11.71875 C1.33845128 18.1996315 0.33577607 22.46401455 -4.1875 27.375 C-4.785625 27.91125 -5.38375 28.4475 -6 29 C-6.99 28.67 -7.98 28.34 -9 28 C-8.59007813 27.45472656 -8.18015625 26.90945312 -7.7578125 26.34765625 C-1.73552517 17.91933547 -0.80456844 10.14179689 0 0 Z " fill="#CEA871" transform="translate(125,97)"/>
<path d="M0 0 C0.66 0 1.32 0 2 0 C1.01 2.97 0.02 5.94 -1 9 C0.32 8.67 1.64 8.34 3 8 C3.33 7.01 3.66 6.02 4 5 C6.97 5 9.94 5 13 5 C13.33 6.32 13.66 7.64 14 9 C15.65 8.67 17.3 8.34 19 8 C19 8.66 19 9.32 19 10 C16.69 10.33 14.38 10.66 12 11 C11.67 9.35 11.34 7.7 11 6 C8.55519921 6.18828772 8.55519921 6.18828772 6 7 C4.63979849 8.96758273 4.63979849 8.96758273 4 11 C1.03 10.505 1.03 10.505 -2 10 C-2.6875 8.375 -2.6875 8.375 -3 6 C-1.5625 2.75 -1.5625 2.75 0 0 Z " fill="#E5BE4E" transform="translate(60,87)"/>
<path d="M0 0 C0 0.66 0 1.32 0 2 C-2.31 2 -4.62 2 -7 2 C-7.66 7.94 -8.32 13.88 -9 20 C-9.33 20 -9.66 20 -10 20 C-10.66 15.71 -11.32 11.42 -12 7 C-12.66 7.66 -13.32 8.32 -14 9 C-14.99 8.67 -15.98 8.34 -17 8 C-13.40788992 3.12499346 -11.33344925 1.40231884 -5.375 0.375 C-2 0 -2 0 0 0 Z " fill="#AF7955" transform="translate(20,0)"/>
<path d="M0 0 C0.99 0.33 1.98 0.66 3 1 C2.95875 1.78375 2.9175 2.5675 2.875 3.375 C2.71271266 6.16116119 2.71271266 6.16116119 5 8 C7.57061311 8.64767793 7.57061311 8.64767793 10 9 C9.67 9.99 9.34 10.98 9 12 C2.69181722 12.35706695 2.69181722 12.35706695 0.0625 11 C-1.69514653 7.69148889 -1.23910554 4.70613592 -1 1 C-0.67 0.67 -0.34 0.34 0 0 Z " fill="#F3F1DD" transform="translate(52,45)"/>
<path d="M0 0 C0 0.99 0 1.98 0 3 C-0.66 3 -1.32 3 -2 3 C-2 3.66 -2 4.32 -2 5 C-2.66 5 -3.32 5 -4 5 C-3.01 5.99 -2.02 6.98 -1 8 C-1.33 8.66 -1.66 9.32 -2 10 C-7.94 9.01 -7.94 9.01 -14 8 C-14 7.34 -14 6.68 -14 6 C-13.07316406 5.65066406 -12.14632812 5.30132812 -11.19140625 4.94140625 C-9.99386719 4.48636719 -8.79632813 4.03132813 -7.5625 3.5625 C-6.36753906 3.11003906 -5.17257813 2.65757813 -3.94140625 2.19140625 C-1.15554277 1.2855174 -1.15554277 1.2855174 0 0 Z " fill="#22840F" transform="translate(90,65)"/>
<path d="M0 0 C0.33 0.99 0.66 1.98 1 3 C1.99 3.33 2.98 3.66 4 4 C3.34 4 2.68 4 2 4 C2 4.66 2 5.32 2 6 C3.32 6 4.64 6 6 6 C6 6.66 6 7.32 6 8 C5.01 8.66 4.02 9.32 3 10 C2.67 10.33 2.34 10.66 2 11 C-0.67058851 11.14115161 -3.32432238 11.04247107 -6 11 C-6 10.34 -6 9.68 -6 9 C-5.195625 8.21625 -4.39125 7.4325 -3.5625 6.625 C-1.18189674 4.18633325 -0.36364082 3.2727674 0 0 Z " fill="#93CF28" transform="translate(65,48)"/>
<path d="M0 0 C1.6045556 0.14148989 3.20863767 0.28835686 4.8125 0.4375 C5.70582031 0.51871094 6.59914063 0.59992187 7.51953125 0.68359375 C10 1 10 1 13 2 C13.33 2.99 13.66 3.98 14 5 C11.8125 6.1875 11.8125 6.1875 9 7 C6.4375 5.75 6.4375 5.75 4 4 C2.67391178 3.31903578 1.34313399 2.64669414 0 2 C0 1.34 0 0.68 0 0 Z " fill="#80D54F" transform="translate(74,26)"/>
<path d="M0 0 C6.27 0 12.54 0 19 0 C19 1.32 19 2.64 19 4 C18.4534375 3.83628906 17.906875 3.67257813 17.34375 3.50390625 C14.66353688 2.92766043 12.23980423 2.90362879 9.5 2.9375 C8.09234375 2.95103516 8.09234375 2.95103516 6.65625 2.96484375 C5.7796875 2.97644531 4.903125 2.98804688 4 3 C2.68 3 1.36 3 0 3 C0 2.01 0 1.02 0 0 Z " fill="#14160A" transform="translate(59,60)"/>
<path d="M0 0 C0.99 0 1.98 0 3 0 C3 0.66 3 1.32 3 2 C3.99 1.67 4.98 1.34 6 1 C6.125 3.375 6.125 3.375 6 6 C5.34 6.66 4.68 7.32 4 8 C1.375 7.625 1.375 7.625 -1 7 C-1.625 4.625 -1.625 4.625 -2 2 C-1.34 1.34 -0.68 0.68 0 0 Z " fill="#080808" transform="translate(77,46)"/>
<path d="M0 0 C0.99 0 1.98 0 3 0 C3 0.66 3 1.32 3 2 C3.99 1.67 4.98 1.34 6 1 C6.125 3.375 6.125 3.375 6 6 C5.34 6.66 4.68 7.32 4 8 C1.375 7.625 1.375 7.625 -1 7 C-1.625 4.625 -1.625 4.625 -2 2 C-1.34 1.34 -0.68 0.68 0 0 Z " fill="#0D0D0C" transform="translate(57,46)"/>
<path d="M0 0 C2.31 0.66 4.62 1.32 7 2 C7 2.99 7 3.98 7 5 C3.84493858 5.93619813 1.03413498 6.1057123 -2.25 6.0625 C-3.14203125 6.05347656 -4.0340625 6.04445313 -4.953125 6.03515625 C-5.62859375 6.02355469 -6.3040625 6.01195312 -7 6 C-4.72635823 3.57000464 -3.31726155 2.57194165 0 2 C0 1.34 0 0.68 0 0 Z " fill="#97CF30" transform="translate(71,54)"/>
<path d="M0 0 C0 0.99 0 1.98 0 3 C-1.670625 3.4021875 -1.670625 3.4021875 -3.375 3.8125 C-7.21840951 4.65809019 -7.21840951 4.65809019 -9 8 C-9.66 8 -10.32 8 -11 8 C-11 7.34 -11 6.68 -11 6 C-11.66 6 -12.32 6 -13 6 C-13 5.34 -13 4.68 -13 4 C-12.34 4 -11.68 4 -11 4 C-10.67 3.01 -10.34 2.02 -10 1 C-6.76421296 -0.31828361 -3.44785988 -0.07836045 0 0 Z " fill="#75D148" transform="translate(65,26)"/>
<path d="M0 0 C0.53625 0.7425 1.0725 1.485 1.625 2.25 C3.89200409 5.16715837 3.89200409 5.16715837 7.25 6.9375 C8.1575 7.618125 9.065 8.29875 10 9 C10.375 12.25 10.375 12.25 10 15 C7.49808719 13.7490436 5.97010432 11.97010432 4 10 C3.34 9.67 2.68 9.34 2 9 C0.03191281 5.93853104 -0.19990835 3.59835033 0 0 Z " fill="#429215" transform="translate(41,57)"/>
<path d="M0 0 C0.68359375 1.765625 0.68359375 1.765625 1 4 C-0.21484375 5.921875 -0.21484375 5.921875 -1.9375 7.75 C-2.50339844 8.36359375 -3.06929688 8.9771875 -3.65234375 9.609375 C-4.09707031 10.06828125 -4.54179688 10.5271875 -5 11 C-3.35 11.33 -1.7 11.66 0 12 C0 12.33 0 12.66 0 13 C-2.64 13 -5.28 13 -8 13 C-8.33 12.01 -8.66 11.02 -9 10 C-8.34 10 -7.68 10 -7 10 C-7 9.34 -7 8.68 -7 8 C-6.34 7.67 -5.68 7.34 -5 7 C-3.98133771 5.34467377 -2.98189187 3.67739862 -2 2 C-1.34 1.34 -0.68 0.68 0 0 Z " fill="#459F15" transform="translate(95,60)"/>
<path d="M0 0 C0.66 0.33 1.32 0.66 2 1 C1.67 1.99 1.34 2.98 1 4 C-2.29701062 5.34807677 -5.7354961 5.10070113 -9.25 5.0625 C-10.32765625 5.05347656 -11.4053125 5.04445313 -12.515625 5.03515625 C-13.33546875 5.02355469 -14.1553125 5.01195313 -15 5 C-14.67 4.34 -14.34 3.68 -14 3 C-11.6015625 2.40234375 -11.6015625 2.40234375 -8.625 1.9375 C-5.60519514 1.45544672 -2.90647913 0.96882638 0 0 Z " fill="#21AA15" transform="translate(78,100)"/>
<path d="M0 0 C0.33 1.32 0.66 2.64 1 4 C0.34 4 -0.32 4 -1 4 C-0.34 5.65 0.32 7.3 1 9 C-3.75 12 -3.75 12 -6 12 C-5.54300722 6.97307937 -3.00758252 3.85103739 0 0 Z " fill="#3AB425" transform="translate(85,92)"/>
<path d="M0 0 C2.0625 0.4375 2.0625 0.4375 4 1 C4 1.66 4 2.32 4 3 C5.423125 2.690625 5.423125 2.690625 6.875 2.375 C7.90625 2.25125 8.9375 2.1275 10 2 C10.66 2.66 11.32 3.32 12 4 C10.7625 4.12375 9.525 4.2475 8.25 4.375 C5.1237803 4.75746305 2.71120763 5.30549523 0 7 C-0.38133299 5.0085944 -0.71325582 3.00720923 -1 1 C-0.67 0.67 -0.34 0.34 0 0 Z " fill="#56A82E" transform="translate(50,31)"/>
<path d="M0 0 C0.33 0 0.66 0 1 0 C1.12190678 8.39802254 0.84327749 16.64251778 0 25 C-0.33 25 -0.66 25 -1 25 C-2.37323944 8.96478873 -2.37323944 8.96478873 -1 1 C-0.67 0.67 -0.34 0.34 0 0 Z " fill="#644438" transform="translate(3,9)"/>
<path d="M0 0 C5.94 0.99 5.94 0.99 12 2 C10.02 2.99 10.02 2.99 8 4 C7.01 3.67 6.02 3.34 5 3 C5 3.66 5 4.32 5 5 C3.865625 5.12375 2.73125 5.2475 1.5625 5.375 C-0.2009375 5.684375 -0.2009375 5.684375 -2 6 C-2.33 6.66 -2.66 7.32 -3 8 C-2.34099246 4.92463146 -1.46132217 2.92264434 0 0 Z " fill="#36B621" transform="translate(48,72)"/>
<path d="M0 0 C0.99 0.33 1.98 0.66 3 1 C3.66666667 2.66666667 4.33333333 4.33333333 5 6 C5.99 6.33 6.98 6.66 8 7 C7.34 8.32 6.68 9.64 6 11 C4.68 11 3.36 11 2 11 C2 10.01 2 9.02 2 8 C1.69949171 6.59673361 1.36409864 5.20062607 1 3.8125 C0.67 2.554375 0.34 1.29625 0 0 Z " fill="#E8BA39" transform="translate(75,88)"/>
<path d="M0 0 C0.99 0.33 1.98 0.66 3 1 C3 4.63 3 8.26 3 12 C2.01 12 1.02 12 0 12 C0 8.04 0 4.08 0 0 Z " fill="#9B5B34" transform="translate(9,102)"/>
<path d="M0 0 C3.37877152 -0.28526214 6.63022715 -0.4348094 10 0 C12.79258601 2.96183365 13.43197762 6.02384332 14 10 C13.34 8.68 12.68 7.36 12 6 C11.34 6 10.68 6 10 6 C9.62875 5.34 9.2575 4.68 8.875 4 C7.22593105 1.81895526 7.22593105 1.81895526 5.02734375 1.734375 C3.01632914 1.74856205 1.00675484 1.86840952 -1 2 C-0.67 1.34 -0.34 0.68 0 0 Z " fill="#71A833" transform="translate(77,34)"/>
<path d="M0 0 C0.66 0 1.32 0 2 0 C1.67 1.65 1.34 3.3 1 5 C1.598125 5.12375 2.19625 5.2475 2.8125 5.375 C5 6 5 6 8 8 C6.02 8 4.04 8 2 8 C2 7.34 2 6.68 2 6 C0.02 6 -1.96 6 -4 6 C-2.84826645 3.53199953 -1.95216435 1.95216435 0 0 Z " fill="#ADD953" transform="translate(72,18)"/>
<path d="M0 0 C1.65 0 3.3 0 5 0 C5.33 1.98 5.66 3.96 6 6 C4.02 6 2.04 6 0 6 C0 4.02 0 2.04 0 0 Z " fill="#FC9E3A" transform="translate(34,16)"/>
<path d="M0 0 C0.99 0 1.98 0 3 0 C3.1953125 6.0546875 3.1953125 6.0546875 3 8 C2.34 8.66 1.68 9.32 1 10 C0.01 9.67 -0.98 9.34 -2 9 C-1.34 6.03 -0.68 3.06 0 0 Z " fill="#F7F5E5" transform="translate(84,46)"/>
<path d="M0 0 C0.66 1.32 1.32 2.64 2 4 C1.01 3.34 0.02 2.68 -1 2 C-4.54187831 1.66661404 -4.54187831 1.66661404 -8 2 C-10.5654594 4.5654594 -10.54046087 6.47686668 -11 10 C-11.33 8.68 -11.66 7.36 -12 6 C-12.66 6 -13.32 6 -14 6 C-14 5.01 -14 4.02 -14 3 C-9.72130704 -0.72660355 -5.34957055 -0.31468062 0 0 Z " fill="#92B63C" transform="translate(62,42)"/>
<path d="M0 0 C3.3 0 6.6 0 10 0 C9.67 0.66 9.34 1.32 9 2 C6.69 2 4.38 2 2 2 C2 3.32 2 4.64 2 6 C1.01 5.67 0.02 5.34 -1 5 C-0.67 3.35 -0.34 1.7 0 0 Z " fill="#A88456" transform="translate(10,116)"/>
<path d="M0 0 C0.66 0 1.32 0 2 0 C2 0.66 2 1.32 2 2 C5.63 2.33 9.26 2.66 13 3 C11.68 3.33 10.36 3.66 9 4 C9 4.66 9 5.32 9 6 C5.44219804 5.39009109 2.3171411 4.4216319 -1 3 C-0.67 2.01 -0.34 1.02 0 0 Z " fill="#32B622" transform="translate(74,71)"/>
<path d="M0 0 C0.66 0 1.32 0 2 0 C2.33 2.64 2.66 5.28 3 8 C1.35 8 -0.3 8 -2 8 C-1.125 2.25 -1.125 2.25 0 0 Z " fill="#E6B052" transform="translate(68,81)"/>
<path d="M0 0 C1.32 0 2.64 0 4 0 C3 3 3 3 1 4 C0.26924352 6.3140622 -0.40138258 8.64828869 -1 11 C-1.33 11 -1.66 11 -2 11 C-2.05399736 9.54207116 -2.09279177 8.08357288 -2.125 6.625 C-2.15980469 5.40683594 -2.15980469 5.40683594 -2.1953125 4.1640625 C-2 2 -2 2 0 0 Z " fill="#94C834" transform="translate(102,39)"/>
<path d="M0 0 C2.69082872 0.17635452 5.32851446 0.61835921 8 1 C7.67 2.32 7.34 3.64 7 5 C7 4.34 7 3.68 7 3 C4.69 3 2.38 3 0 3 C-0.33 3.99 -0.66 4.98 -1 6 C-1.042721 4.33388095 -1.04063832 2.66617115 -1 1 C-0.67 0.67 -0.34 0.34 0 0 Z " fill="#CDB44B" transform="translate(65,75)"/>
<path d="M0 0 C2.97 0.495 2.97 0.495 6 1 C5.01 1.33 4.02 1.66 3 2 C2.67 3.98 2.34 5.96 2 8 C1.01 8.33 0.02 8.66 -1 9 C-0.67 6.03 -0.34 3.06 0 0 Z " fill="#ED3423" transform="translate(65,78)"/>
<path d="M0 0 C1.2065625 0.0309375 1.2065625 0.0309375 2.4375 0.0625 C2.4375 1.3825 2.4375 2.7025 2.4375 4.0625 C0.7875 4.3925 -0.8625 4.7225 -2.5625 5.0625 C-3.125 3.125 -3.125 3.125 -3.5625 1.0625 C-2.5625 0.0625 -2.5625 0.0625 0 0 Z " fill="#6DE3E5" transform="translate(101.5625,16.9375)"/>
<path d="M0 0 C0.99 0 1.98 0 3 0 C3 0.66 3 1.32 3 2 C3.66 2.33 4.32 2.66 5 3 C4.01 3 3.02 3 2 3 C1.67 4.65 1.34 6.3 1 8 C0.01 7.34 -0.98 6.68 -2 6 C-1.125 1.125 -1.125 1.125 0 0 Z " fill="#222120" transform="translate(77,46)"/>
<path d="M0 0 C2.31 0.33 4.62 0.66 7 1 C6.67 2.98 6.34 4.96 6 7 C5.67 6.34 5.34 5.68 5 5 C4.34 5 3.68 5 3 5 C1.375 2.5 1.375 2.5 0 0 Z " fill="#61C325" transform="translate(81,77)"/>
<path d="M0 0 C2.0625 0.4375 2.0625 0.4375 4 1 C4 1.99 4 2.98 4 4 C5.32 4.33 6.64 4.66 8 5 C6.3125 5.8125 6.3125 5.8125 4 6 C1.25 3.5625 1.25 3.5625 -1 1 C-0.67 0.67 -0.34 0.34 0 0 Z " fill="#E1B335" transform="translate(56,96)"/>
<path d="M0 0 C4.75 1.875 4.75 1.875 7 3 C7.33 2.34 7.66 1.68 8 1 C8.66 1.99 9.32 2.98 10 4 C9.67 4.99 9.34 5.98 9 7 C8.01 6.67 7.02 6.34 6 6 C6 5.34 6 4.68 6 4 C5.195625 3.71125 4.39125 3.4225 3.5625 3.125 C1 2 1 2 0 0 Z " fill="#66B723" transform="translate(38,68)"/>
<path d="M0 0 C0.66 0 1.32 0 2 0 C0.7580393 3.43927579 -0.55740284 6.25207819 -3 9 C-3.66 9 -4.32 9 -5 9 C-4.42676569 5.13066838 -2.61046448 2.84777943 0 0 Z " fill="#774A30" transform="translate(96,24)"/>
<path d="M0 0 C-0.99 0.66 -1.98 1.32 -3 2 C-3.33 2.66 -3.66 3.32 -4 4 C-6.31 4 -8.62 4 -11 4 C-11 3.34 -11 2.68 -11 2 C-7.17679443 0.57741188 -4.08718695 -0.24042276 0 0 Z " fill="#4BB72C" transform="translate(94,73)"/>
<path d="M0 0 C0.33 0.99 0.66 1.98 1 3 C1.99 3.33 2.98 3.66 4 4 C3.34 4 2.68 4 2 4 C2 4.66 2 5.32 2 6 C3.32 6 4.64 6 6 6 C6 6.66 6 7.32 6 8 C1.25 7.125 1.25 7.125 -1 6 C-0.67 4.02 -0.34 2.04 0 0 Z " fill="#75AB19" transform="translate(65,48)"/>
<path d="M0 0 C0.99 0.33 1.98 0.66 3 1 C2.67 3.64 2.34 6.28 2 9 C1.34 8.01 0.68 7.02 0 6 C-0.66 6 -1.32 6 -2 6 C-2 5.01 -2 4.02 -2 3 C-1.34 3 -0.68 3 0 3 C0 2.01 0 1.02 0 0 Z " fill="#9ACD3A" transform="translate(36,37)"/>
<path d="M0 0 C0.6875 1.8125 0.6875 1.8125 1 4 C-0.4375 5.75 -0.4375 5.75 -2 7 C-4.41793589 5.79103206 -4.79103206 5.41793589 -6 3 C-4.02 2.01 -2.04 1.02 0 0 Z " fill="#C09A64" transform="translate(121,114)"/>
<path d="M0 0 C0.33 0.99 0.66 1.98 1 3 C1.66 3 2.32 3 3 3 C2.67 4.32 2.34 5.64 2 7 C0.68 7 -0.64 7 -2 7 C-1.34 4.69 -0.68 2.38 0 0 Z " fill="#DE150F" transform="translate(61,89)"/>
<path d="M0 0 C3.14737182 0.69941596 6.02588876 1.76078698 9 3 C9 3.33 9 3.66 9 4 C2.25 4.125 2.25 4.125 0 3 C0 2.01 0 1.02 0 0 Z " fill="#AAD648" transform="translate(76,30)"/>
<path d="M0 0 C0.8353125 0.37125 0.8353125 0.37125 1.6875 0.75 C0.6975 1.245 0.6975 1.245 -0.3125 1.75 C-0.3125 2.74 -0.3125 3.73 -0.3125 4.75 C-2.6225 4.42 -4.9325 4.09 -7.3125 3.75 C-2.88173077 -0.31153846 -2.88173077 -0.31153846 0 0 Z " fill="#99D53E" transform="translate(62.3125,29.25)"/>
<path d="M0 0 C1.17539996 0.92652701 2.34010577 1.86663387 3.5 2.8125 C4.1496875 3.33457031 4.799375 3.85664063 5.46875 4.39453125 C7 6 7 6 7 9 C3.26115668 6.34345343 1.35021826 4.41889613 0 0 Z " fill="#67381F" transform="translate(40,25)"/>
<path d="M0 0 C0.33 0.99 0.66 1.98 1 3 C-0.32 4.32 -1.64 5.64 -3 7 C-3.99 6.67 -4.98 6.34 -6 6 C-4 4 -2 2 0 0 Z " fill="#C9A16B" transform="translate(122,119)"/>
<path d="M0 0 C1.25541557 3.76624671 0.37061958 5.37188934 -1 9 C-2.32 8.34 -3.64 7.68 -5 7 C-4.360625 6.21625 -3.72125 5.4325 -3.0625 4.625 C-1.01857687 2.20460719 -1.01857687 2.20460719 0 0 Z " fill="#9C7747" transform="translate(124,107)"/>
<path d="M0 0 C0.66 0 1.32 0 2 0 C2.66 2.31 3.32 4.62 4 7 C2.0625 6.1875 2.0625 6.1875 0 5 C-0.33 4.01 -0.66 3.02 -1 2 C-0.67 1.34 -0.34 0.68 0 0 Z " fill="#6DB826" transform="translate(34,61)"/>
<path d="M0 0 C1.65 1.65 3.3 3.3 5 5 C4.01 5.99 3.02 6.98 2 8 C1.71125 7.38125 1.4225 6.7625 1.125 6.125 C0.06279958 3.86674235 0.06279958 3.86674235 -2 2 C-1.34 2 -0.68 2 0 2 C0 1.34 0 0.68 0 0 Z " fill="#A3CE4E" transform="translate(27,35)"/>
<path d="M0 0 C0.99 0.33 1.98 0.66 3 1 C3.33 2.98 3.66 4.96 4 7 C3.01 7.495 3.01 7.495 2 8 C1.34 5.36 0.68 2.72 0 0 Z " fill="#DEAE44" transform="translate(75,88)"/>
<path d="M0 0 C0.99 0.66 1.98 1.32 3 2 C1.625 4 1.625 4 0 6 C-0.66 6 -1.32 6 -2 6 C-2.33 6.66 -2.66 7.32 -3 8 C-2.37240135 5.07120629 -1.41377341 2.63904371 0 0 Z " fill="#31B016" transform="translate(48,72)"/>
<path d="M0 0 C2.475 0.99 2.475 0.99 5 2 C4.67 3.32 4.34 4.64 4 6 C3.34 6 2.68 6 2 6 C1.34 4.02 0.68 2.04 0 0 Z " fill="#277F0E" transform="translate(50,67)"/>
<path d="M0 0 C1.46132217 2.92264434 2.34099246 4.92463146 3 8 C2.01 7.67 1.02 7.34 0 7 C-0.33 7.66 -0.66 8.32 -1 9 C-0.67 6.03 -0.34 3.06 0 0 Z " fill="#74C222" transform="translate(49,48)"/>
<path d="M0 0 C0.33 0 0.66 0 1 0 C1.125 2.375 1.125 2.375 1 5 C0.34 5.66 -0.32 6.32 -1 7 C-3.125 6.625 -3.125 6.625 -5 6 C-3.36587557 4.29159719 -2.13093906 3.06546953 0 2 C0 1.34 0 0.68 0 0 Z " fill="#1C1C1B" transform="translate(62,47)"/>
<path d="M0 0 C0.33 0 0.66 0 1 0 C1 1.98 1 3.96 1 6 C0.67 6 0.34 6 0 6 C0 4.02 0 2.04 0 0 Z " fill="#2A2020" transform="translate(0,10)"/>
<path d="M0 0 C0.66 1.32 1.32 2.64 2 4 C1.34 3.67 0.68 3.34 0 3 C0 2.01 0 1.02 0 0 Z " fill="#887777" transform="translate(1,120)"/>
<path d="M0 0 C0.33 0 0.66 0 1 0 C1 1.65 1 3.3 1 5 C0.67 5 0.34 5 0 5 C0 3.35 0 1.7 0 0 Z " fill="#261919" transform="translate(0,115)"/>
<path d="M0 0 C0.99 0.495 0.99 0.495 2 1 C1.67 1.66 1.34 2.32 1 3 C0.67 2.01 0.34 1.02 0 0 Z " fill="#FFBF7F" transform="translate(123,3)"/>
<path d="" fill="#FFE28D" transform="translate(0,0)"/>
<path d="" fill="#2A2A2A" transform="translate(0,0)"/>
<path d="" fill="#D4AA55" transform="translate(0,0)"/>
<path d="" fill="#AA7F7F" transform="translate(0,0)"/>
<path d="M0 0 C2 1 2 1 2 1 Z " fill="#FFFF7F" transform="translate(121,2)"/>
<path d="M0 0 C2 1 2 1 2 1 Z " fill="#954040" transform="translate(7,1)"/>
<path d="M0 0 C2 1 2 1 2 1 Z " fill="#FF9F80" transform="translate(118,0)"/>
<path d="M0 0 C2 1 2 1 2 1 Z " fill="#AA2A2A" transform="translate(9,0)"/>
<path d="" fill="#AAAAAA" transform="translate(0,0)"/>
<path d="" fill="#FFFFAA" transform="translate(0,0)"/>
<path d="" fill="#AA5555" transform="translate(0,0)"/>
<path d="" fill="#804040" transform="translate(0,0)"/>
<path d="" fill="#804040" transform="translate(0,0)"/>
<path d="" fill="#AA5555" transform="translate(0,0)"/>
<path d="" fill="#FFFFBF" transform="translate(0,0)"/>
</svg>
